<svg width="74" height="30" viewBox="0 0 74 30" fill="none" xmlns="http://www.w3.org/2000/svg">
<path d="M0.9 29.8413C0.9 29.7355 0.952941 29.6826 1.00588 29.6826C1.53529 29.6826 1.90588 29.6297 2.17059 29.5238C2.43529 29.418 2.59412 29.2064 2.7 28.9418C2.80588 28.6773 2.85882 28.2011 2.85882 27.6191V13.545C2.85882 12.8572 2.75294 12.381 2.59412 12.0635C2.43529 11.7461 2.17059 11.5873 1.8 11.5873C1.42941 11.5873 0.9 11.7461 0.264706 12.0635H0.211765C0.105882 12.0635 0.0529412 12.0106 0 11.9048C0 11.799 0 11.7461 0.0529412 11.6931L3.65294 9.94711C3.75882 9.8942 3.81176 9.8942 3.86471 9.8942C4.12941 9.8942 4.39412 10.1588 4.55294 10.6349C4.76471 11.1111 4.87059 11.799 4.87059 12.6455V27.5662C4.87059 28.1482 4.92353 28.6244 5.08235 28.8889C5.24118 29.1535 5.50588 29.3651 5.87647 29.4709C6.3 29.5767 6.88235 29.6297 7.72941 29.6297C7.78235 29.6297 7.83529 29.6826 7.83529 29.7884C7.83529 29.8942 7.78235 29.9471 7.72941 29.9471C7.04118 29.9471 6.45882 29.9471 6.08824 29.8942L3.81176 29.8413L2.11765 29.8942C1.85294 29.8942 1.42941 29.9471 0.952941 29.9471C0.952941 30 0.9 29.9471 0.9 29.8413ZM5.87647 21.9048C5.29412 21.7461 4.65882 21.4286 3.91765 21.0053L4.55294 19.3122C5.13529 20.0529 5.71765 20.582 6.35294 20.9524C6.98824 21.3228 7.72941 21.4815 8.68235 21.4815C9.74118 21.4815 10.5353 21.0053 11.1706 20.1058C11.8059 19.2064 12.1235 17.8836 12.1235 16.2434C12.1235 14.6032 11.7529 13.3334 11.0118 12.4339C10.2706 11.5344 9.37059 11.0582 8.25882 11.0582C7.51765 11.0582 6.82941 11.2699 6.19412 11.6402C5.55882 12.0635 4.92353 12.6455 4.23529 13.3863L3.97059 13.1217C4.97647 11.9577 5.92941 11.0582 6.88235 10.5291C7.83529 10 8.78824 9.73547 9.74118 9.73547C10.5882 9.73547 11.3824 9.94711 12.0706 10.3704C12.7588 10.7937 13.3412 11.4286 13.7647 12.2752C14.1882 13.1217 14.4 14.0741 14.4 15.2381C14.4 16.7725 14.0824 18.0424 13.3941 19.1006C12.7059 20.1058 11.9118 20.8995 10.9059 21.3757C9.9 21.8519 8.89412 22.1164 7.88824 22.1164C7.09412 22.1693 6.40588 22.0635 5.87647 21.9048Z" fill="white"/>
<path d="M16.9942 21.3757C16.5707 21.0053 16.3589 20.4762 16.3589 19.8413C16.3589 19.1535 16.6236 18.6244 17.153 18.2011C17.6824 17.7778 18.5295 17.4074 19.6942 16.9313L23.1354 15.6614L23.2412 16.0318L20.4883 17.1429C19.9589 17.3545 19.5354 17.5662 19.2707 17.8836C18.953 18.1482 18.7942 18.5186 18.7942 18.9947C18.7942 19.4709 18.953 19.8942 19.2707 20.1588C19.5883 20.4762 19.9589 20.635 20.4354 20.635C20.8059 20.635 21.2295 20.4762 21.7059 20.2117L23.453 19.1006L23.5059 19.5238L21.3354 20.9524C20.8589 21.2699 20.4354 21.5344 20.0648 21.6932C19.6412 21.8519 19.2177 21.9048 18.7942 21.9048C18.053 21.9577 17.4177 21.799 16.9942 21.3757ZM24.0883 22.0106C23.7707 22.0106 23.453 21.799 23.2412 21.3228C23.0295 20.8466 22.8707 20.2117 22.8707 19.418V13.9154C22.8707 12.6985 22.7118 11.8519 22.4471 11.2699C22.1824 10.7408 21.7059 10.4233 21.1236 10.4233C20.4354 10.4233 19.9589 10.635 19.6412 11.1111C19.3236 11.5873 19.1118 12.1164 19.0059 12.6985C18.9001 13.5979 18.4765 14.0741 17.7354 14.0741C17.3648 14.0741 17.0471 13.9683 16.8883 13.8096C16.6765 13.6508 16.6236 13.3863 16.6236 13.1217C16.6236 12.5926 16.9412 12.0635 17.5765 11.5873C18.2118 11.0582 19.0059 10.6879 19.9059 10.3175C20.8059 10 21.6001 9.84131 22.3412 9.84131C23.1883 9.84131 23.8236 10.1059 24.3001 10.635C24.7765 11.1641 24.9883 11.9577 24.9883 12.963V18.5186C24.9883 19.8413 25.3589 20.4762 26.153 20.4762C26.5236 20.4762 26.9471 20.3704 27.4765 20.1588H27.5295C27.6354 20.1588 27.6883 20.2117 27.6883 20.3175C27.7412 20.4233 27.6883 20.4762 27.6354 20.5291L24.353 21.9577C24.2471 21.9577 24.1942 22.0106 24.0883 22.0106Z" fill="white"/>
<path d="M27.9531 21.5873C27.9531 21.4815 27.9531 21.4286 28.006 21.4286C28.7472 21.4286 29.2237 21.2698 29.4884 21.0053C29.7001 20.7407 29.8589 20.1587 29.8589 19.3651L29.9119 3.91534C29.8589 3.1746 29.7531 2.6455 29.6472 2.38095C29.4884 2.06349 29.2766 1.90476 28.906 1.90476C28.5884 1.90476 28.1119 2.01058 27.6354 2.27513H27.5825C27.4766 2.27513 27.4237 2.22222 27.3707 2.1164C27.3178 2.01058 27.3178 1.95767 27.4237 1.90476L31.4472 0H31.5531C31.606 0 31.7119 0.0529101 31.7648 0.10582C31.8707 0.15873 31.9237 0.21164 31.9237 0.31746V19.3651C31.9237 20.2116 32.0295 20.7407 32.2942 21.0053C32.506 21.2698 32.9825 21.4286 33.7237 21.4286C33.8295 21.4286 33.8295 21.4815 33.8295 21.5873C33.8295 21.6931 33.7766 21.746 33.7237 21.746C33.2472 21.746 32.8766 21.746 32.6119 21.6931H30.8648L29.1707 21.746C28.906 21.746 28.4825 21.7989 28.006 21.7989C27.9531 21.746 27.9531 21.6931 27.9531 21.5873Z" fill="white"/>
<path d="M35.8413 20.8994C35.206 20.0529 34.8354 18.9947 34.8354 17.7248C34.8354 17.3016 34.8884 16.7725 34.9943 16.2434C35.206 15.1852 35.6296 14.1799 36.3178 13.1746C37.006 12.1693 37.8002 11.3756 38.806 10.7407C39.8119 10.1058 40.8707 9.78833 41.9825 9.78833C42.7237 9.78833 43.306 9.94706 43.6766 10.2116C44.0472 10.4762 44.206 10.8994 44.1531 11.3756C44.0472 12.0106 43.6237 12.6455 42.8296 13.2275C42.0354 13.8095 41.0825 14.2857 39.9178 14.709C38.7531 15.1322 37.4825 15.3968 36.2119 15.5026L36.2649 15.1322C38.0119 14.8677 39.3354 14.4973 40.3413 13.9153C41.3472 13.3333 41.8766 12.5926 41.8766 11.6402C41.8766 11.3227 41.7707 11.0582 41.506 10.8994C41.2413 10.7407 40.9766 10.6349 40.606 10.6349C39.759 10.6349 39.0178 11.0582 38.4354 11.9576C37.8531 12.8042 37.4296 13.9153 37.2178 15.291C37.1119 15.873 37.059 16.455 37.059 17.037C37.059 18.2539 37.3237 19.2592 37.8531 20C38.3825 20.7407 39.1766 21.1111 40.1825 21.1111C41.2943 21.1111 42.3002 20.7936 43.1472 20.1058H43.2002C43.2531 20.1058 43.306 20.1587 43.359 20.2116C43.4119 20.2645 43.4119 20.3174 43.359 20.3703C41.9296 21.5873 40.4472 22.2222 38.859 22.2222C37.4825 22.1164 36.4766 21.6931 35.8413 20.8994Z" fill="white"/>
<path d="M47.4355 21.5344C46.8531 21.1641 46.5884 20.4762 46.5884 19.5767V12.6455C46.5884 11.9577 46.4826 11.4815 46.3237 11.2699C46.112 11.0582 45.6884 10.9524 45.0531 10.9524C45.0002 10.9524 44.9473 10.8466 44.9473 10.6879C44.9473 10.5291 45.0002 10.4762 45.0531 10.4762C45.9531 10.4762 46.6414 10.2646 47.1708 9.8413C47.7002 9.41802 48.0708 8.88892 48.2296 8.14818C48.2296 8.09527 48.3355 8.04236 48.4943 8.04236C48.6531 8.04236 48.7061 8.09527 48.7061 8.14818V18.5185C48.7061 20.1059 49.5002 20.8995 51.0355 20.8995C51.8826 20.8995 52.6767 20.635 53.4179 20.0529C53.4179 20.0529 53.4708 20 53.5237 20C53.5767 20 53.6296 20.0529 53.6826 20.1059C53.7355 20.2117 53.7355 20.2646 53.6296 20.2646C52.8884 20.8995 52.2002 21.3228 51.5649 21.6402C50.9296 21.9048 50.2943 22.0635 49.6061 22.0635C48.7061 22.1164 47.9649 21.9048 47.4355 21.5344ZM47.9649 11.217V10.5291C49.2355 10.5291 50.8237 10.4233 52.7296 10.2117C52.7826 10.2117 52.8355 10.2646 52.8884 10.4233C52.9414 10.582 52.9414 10.7408 52.9414 10.8995C52.9414 11.0582 52.8884 11.2699 52.8355 11.4286C52.7826 11.5873 52.7296 11.6932 52.6237 11.6402C51.3002 11.3228 49.712 11.217 47.9649 11.217Z" fill="white"/>
<path d="M56.9648 21.5344C56.3824 21.1641 56.1177 20.4762 56.1177 19.5767V12.6455C56.1177 11.9577 56.0119 11.4815 55.853 11.2699C55.6413 11.0582 55.2177 10.9524 54.5824 10.9524C54.5295 10.9524 54.4766 10.8466 54.4766 10.6879C54.4766 10.5291 54.5295 10.4762 54.5824 10.4762C55.4824 10.4762 56.1707 10.2646 56.7001 9.8413C57.2295 9.41802 57.6001 8.88892 57.7589 8.14818C57.7589 8.09527 57.8648 8.04236 58.0236 8.04236C58.1824 8.04236 58.2354 8.09527 58.2354 8.14818V18.5185C58.2354 20.1059 59.0295 20.8995 60.5648 20.8995C61.4119 20.8995 62.206 20.635 62.9472 20.0529C62.9472 20.0529 63.0001 20 63.053 20C63.106 20 63.1589 20.0529 63.2119 20.1059C63.2648 20.2117 63.2648 20.2646 63.1589 20.2646C62.4177 20.8995 61.7295 21.3228 61.0942 21.6402C60.4589 21.9048 59.8236 22.0635 59.1354 22.0635C58.2354 22.1164 57.5471 21.9048 56.9648 21.5344ZM57.5471 11.217V10.5291C58.8177 10.5291 60.406 10.4233 62.3119 10.2117C62.3648 10.2117 62.4177 10.2646 62.4707 10.4233C62.5236 10.582 62.5236 10.7408 62.5236 10.8995C62.5236 11.0582 62.4707 11.2699 62.4177 11.4286C62.3648 11.5873 62.3119 11.6932 62.206 11.6402C60.8295 11.3228 59.2942 11.217 57.5471 11.217Z" fill="white"/>
<path d="M64.7471 20.8994C64.1118 20.0529 63.7412 18.9947 63.7412 17.7248C63.7412 17.3016 63.7941 16.7725 63.9 16.2434C64.1118 15.1852 64.5353 14.1799 65.2236 13.1746C65.9118 12.1693 66.7059 11.3756 67.7118 10.7407C68.7177 10.1058 69.7765 9.78833 70.8883 9.78833C71.6294 9.78833 72.2118 9.94706 72.5824 10.2116C72.953 10.4762 73.1118 10.8994 73.0589 11.3756C72.953 12.0106 72.5294 12.6455 71.7353 13.2275C70.9412 13.8095 69.9883 14.2857 68.8236 14.709C67.6589 15.1322 66.3883 15.3968 65.1177 15.5026L65.1706 15.1322C66.9177 14.8677 68.2412 14.4973 69.2471 13.9153C70.253 13.3333 70.7824 12.5926 70.7824 11.6402C70.7824 11.3227 70.6765 11.0582 70.4118 10.8994C70.1471 10.7407 69.8824 10.6349 69.5118 10.6349C68.6647 10.6349 67.9236 11.0582 67.3412 11.9576C66.7589 12.8042 66.3353 13.9153 66.1236 15.291C66.0177 15.873 65.9647 16.455 65.9647 17.037C65.9647 18.2539 66.2294 19.2592 66.7589 20C67.2883 20.7407 68.0824 21.1111 69.0883 21.1111C70.2 21.1111 71.2059 20.7936 72.053 20.1058H72.1059C72.1589 20.1058 72.2118 20.1587 72.2647 20.2116C72.3177 20.2645 72.3177 20.3174 72.2647 20.3703C70.8353 21.5873 69.353 22.2222 67.7647 22.2222C66.3883 22.1164 65.4353 21.6931 64.7471 20.8994Z" fill="white"/>
</svg>
